<?xml version="1.0" standalone="no"?>
<!DOCTYPE svg PUBLIC "-//W3C//DTD SVG 20010904//EN"
 "http://www.w3.org/TR/2001/REC-SVG-20010904/DTD/svg10.dtd">
<svg version="1.0" xmlns="http://www.w3.org/2000/svg"
 width="962.000000pt" height="189.000000pt" viewBox="0 0 962.000000 189.000000"
 preserveAspectRatio="xMidYMid meet">

<g transform="translate(0.000000,189.000000) scale(0.100000,-0.100000)"
fill="#000000" stroke="none">
<path d="M6742 1638 c-9 -9 -12 -85 -12 -279 l0 -267 -58 57 c-66 66 -128 93
-220 94 -91 0 -158 -27 -223 -92 -80 -80 -103 -143 -104 -282 0 -102 1 -107
38 -182 29 -59 51 -87 88 -117 131 -103 311 -92 426 27 l53 54 0 -54 c0 -57
12 -77 45 -77 45 0 45 -5 45 565 0 570 0 565 -45 565 -12 0 -26 -5 -33 -12z
m-166 -483 c47 -19 103 -73 130 -126 21 -42 24 -62 24 -158 0 -100 -2 -113
-28 -162 -50 -96 -143 -146 -253 -136 -97 8 -162 55 -211 151 -30 58 -36 185
-13 260 20 62 79 137 127 162 62 32 157 36 224 9z"/>
<path d="M7623 1640 c-64 -15 -107 -46 -139 -98 -37 -61 -44 -95 -44 -219 l0
-93 -47 0 c-62 0 -90 -8 -97 -27 -11 -28 14 -42 77 -45 l62 -3 5 -315 5 -315
35 0 35 0 5 315 5 315 107 3 c109 3 135 12 122 45 -8 21 -36 27 -143 27 l-94
0 6 106 c10 169 50 225 173 242 53 8 76 31 55 56 -14 17 -71 20 -128 6z"/>
<path d="M7083 1503 c-8 -3 -13 -25 -13 -59 0 -49 2 -54 25 -60 44 -11 55 0
55 60 0 61 -20 79 -67 59z"/>
<path d="M7890 1491 c-24 -46 -5 -111 33 -111 34 0 47 19 47 65 0 23 -5 46
-12 53 -18 18 -56 14 -68 -7z"/>
<path d="M5419 1272 c-213 -71 -338 -309 -269 -516 58 -174 215 -287 400 -287
369 1 553 439 293 699 -32 33 -79 65 -120 85 -58 27 -81 32 -158 34 -67 2
-104 -2 -146 -15z m291 -55 c107 -51 185 -152 210 -271 50 -242 -170 -471
-418 -436 -132 18 -238 94 -295 209 -29 60 -32 73 -32 161 1 82 4 102 28 150
49 102 119 166 220 202 78 28 213 21 287 -15z"/>
<path d="M5548 1129 c-10 -5 -18 -19 -18 -29 0 -30 -92 -73 -159 -74 -40 -1
-57 -6 -65 -18 -15 -24 2 -50 42 -63 33 -11 61 -40 62 -63 0 -26 -41 -72 -64
-72 -47 0 -62 -49 -22 -75 18 -12 29 -13 48 -5 33 16 158 -39 158 -69 0 -25
34 -44 60 -36 19 6 35 40 28 61 -2 5 31 42 74 82 63 60 80 72 100 67 36 -9 65
26 50 60 -9 19 -19 25 -43 25 -44 0 -179 120 -179 160 0 26 -26 60 -46 60 -5
0 -17 -5 -26 -11z m-25 -100 c-10 -17 -25 -36 -33 -43 -18 -16 -90 -9 -90 9 0
12 103 64 128 65 10 0 8 -8 -5 -31z m163 -51 c41 -39 72 -73 71 -75 -10 -9
-137 39 -137 52 0 8 -10 21 -22 29 -20 14 -24 14 -46 0 -13 -8 -30 -14 -38
-12 -11 2 -9 11 11 41 41 59 71 53 161 -35z m-229 -16 c10 -7 10 -12 0 -26
-13 -17 -15 -17 -43 8 l-29 25 30 1 c17 0 36 -4 42 -8z m63 -12 c11 -7 12 -14
4 -27 -30 -49 -81 -38 -54 12 14 27 26 30 50 15z m178 -45 c29 -9 51 -22 49
-28 -6 -19 -119 -49 -139 -37 -10 5 -33 10 -52 10 -19 0 -39 7 -47 16 -11 14
-10 18 6 31 11 8 30 11 43 8 13 -3 32 1 44 9 11 8 25 13 32 11 6 -2 35 -11 64
-20z m-173 -81 c0 -30 -39 -29 -55 1 -12 23 -12 28 0 35 20 12 55 -12 55 -36z
m164 -44 c-90 -84 -122 -91 -165 -35 -33 43 -25 54 19 30 27 -14 38 -15 55 -6
12 6 22 20 22 30 0 14 16 23 68 38 37 11 69 19 71 17 3 -2 -29 -35 -70 -74z
m-219 19 c0 -9 -70 -17 -76 -8 -2 4 8 16 23 28 26 18 29 19 41 4 6 -9 12 -20
12 -24z m44 -56 c34 -48 19 -53 -57 -18 -74 34 -75 52 -1 54 25 1 36 -6 58
-36z"/>
<path d="M225 1256 c-104 -26 -156 -72 -174 -156 -14 -66 -14 -374 0 -440 19
-91 80 -139 203 -161 124 -23 257 14 313 88 l28 36 0 257 0 257 -28 36 c-34
45 -84 72 -162 86 -73 14 -116 13 -180 -3z m191 -51 c57 -17 100 -56 114 -106
13 -44 13 -394 0 -438 -11 -39 -43 -77 -83 -98 -39 -20 -153 -28 -205 -14 -55
15 -109 63 -122 109 -16 58 -13 416 4 455 38 90 165 130 292 92z"/>
<path d="M825 1257 c-3 -6 -4 -179 -3 -382 l3 -370 28 -3 c15 -2 28 -2 29 0 1
2 5 144 8 317 l5 313 199 -293 c109 -162 208 -304 219 -317 12 -13 30 -22 42
-20 20 3 20 9 23 380 2 369 2 377 -18 383 -11 3 -24 3 -30 0 -6 -4 -10 -120
-10 -321 0 -208 -3 -313 -10 -309 -6 3 -100 141 -210 305 -110 164 -210 306
-222 314 -27 19 -47 20 -53 3z"/>
<path d="M1615 1257 c-3 -6 -4 -179 -3 -382 l3 -370 25 0 25 0 5 319 5 319
204 -301 c112 -166 213 -311 224 -322 10 -12 28 -20 40 -18 l22 3 3 377 c2
373 2 377 -18 383 -48 15 -50 4 -52 -325 l-3 -307 -205 304 c-113 168 -214
311 -225 319 -24 17 -44 18 -50 1z"/>
<path d="M2331 1261 c-18 -11 -12 -21 121 -214 62 -89 107 -164 104 -172 -3
-8 -53 -82 -110 -165 -58 -83 -111 -160 -116 -171 -14 -25 -5 -39 24 -39 18 0
45 33 136 165 62 91 115 163 119 160 3 -3 56 -77 116 -163 92 -131 114 -157
135 -157 14 0 26 6 28 16 1 8 -52 93 -119 188 l-121 174 49 71 c26 39 82 119
122 178 76 109 85 143 39 136 -17 -2 -49 -41 -116 -138 -51 -74 -103 -148
-115 -165 l-23 -29 -103 152 c-129 191 -134 196 -170 173z"/>
<path d="M8457 1240 c-272 -47 -379 -414 -186 -634 106 -120 313 -141 461 -47
48 31 111 106 105 125 -2 6 -18 12 -35 14 -26 3 -39 -4 -74 -41 -59 -60 -100
-79 -183 -85 -58 -4 -80 0 -123 18 -86 37 -146 124 -159 230 l-6 50 289 0
c159 0 295 4 303 9 22 14 7 105 -29 178 -66 133 -214 208 -363 183z m159 -85
c50 -20 101 -73 129 -130 43 -91 59 -85 -230 -85 l-254 0 14 45 c14 49 22 61
69 113 69 75 173 97 272 57z"/>
<path d="M7087 1218 c-16 -12 -17 -42 -15 -353 l3 -340 35 0 35 0 3 340 c2
311 1 341 -15 353 -9 6 -20 12 -23 12 -3 0 -14 -6 -23 -12z"/>
<path d="M7910 1223 c-8 -3 -18 -11 -22 -17 -4 -6 -8 -157 -8 -337 0 -342 1
-349 45 -349 44 0 45 7 45 357 0 318 -1 333 -19 343 -11 5 -21 10 -23 9 -2 0
-10 -3 -18 -6z"/>
<path d="M9090 1222 c-8 -3 -18 -10 -22 -16 -4 -6 -8 -157 -8 -337 0 -342 1
-349 45 -349 42 0 45 15 45 214 0 203 10 266 50 331 29 47 65 73 116 86 50 13
67 29 58 54 -6 14 -16 16 -55 13 -57 -6 -122 -47 -147 -92 l-17 -31 -5 59 c-4
47 -9 60 -25 66 -11 4 -27 5 -35 2z"/>
<path d="M4125 1171 c-43 -19 -98 -75 -112 -113 -6 -18 -9 -8 -13 42 l-5 65
-35 0 -35 0 0 -320 0 -320 35 0 35 0 5 215 c5 211 6 216 33 272 32 65 64 92
128 109 88 24 171 -15 201 -91 14 -37 17 -82 18 -265 0 -121 4 -226 9 -233 5
-8 21 -12 37 -10 l29 3 5 215 c5 211 6 216 33 272 31 63 61 89 124 108 95 29
187 -17 212 -105 6 -23 11 -130 11 -255 0 -118 4 -221 9 -228 5 -8 21 -12 37
-10 l29 3 0 250 c0 249 0 251 -26 300 -15 30 -42 62 -68 80 -58 41 -163 48
-238 15 -58 -24 -82 -47 -111 -105 l-20 -39 -26 51 c-40 79 -102 113 -205 113
-32 0 -73 -8 -96 -19z"/>
<path d="M3308 919 c-25 -14 -24 -65 1 -79 32 -16 183 -13 209 6 26 18 28 46
6 68 -12 12 -37 16 -107 16 -51 0 -100 -5 -109 -11z"/>
</g>
</svg>
